<svg width="1200" height="700" viewBox="0 0 1200 700" fill="none" xmlns="http://www.w3.org/2000/svg">
  <rect width="1200" height="700" fill="#F8FAFC"/>
  <rect x="120" y="70" width="960" height="560" rx="18" fill="white" stroke="#E2E8F0"/>
  <rect x="160" y="110" width="420" height="22" rx="11" fill="#CBD5E1"/>
  <rect x="910" y="108" width="130" height="36" rx="8" fill="#0760FB"/>
  <rect x="160" y="170" width="420" height="110" rx="10" fill="#F8FAFC" stroke="#E2E8F0"/>
  <rect x="620" y="170" width="420" height="110" rx="10" fill="#F8FAFC" stroke="#E2E8F0"/>
  <rect x="160" y="300" width="270" height="110" rx="10" fill="#F8FAFC" stroke="#E2E8F0"/>
  <rect x="450" y="300" width="270" height="110" rx="10" fill="#F8FAFC" stroke="#E2E8F0"/>
  <rect x="740" y="300" width="300" height="110" rx="10" fill="#F8FAFC" stroke="#E2E8F0"/>
  <rect x="160" y="430" width="880" height="130" rx="10" fill="#F8FAFC" stroke="#E2E8F0"/>
  <rect x="180" y="190" width="120" height="10" rx="5" fill="#CBD5E1"/>
  <rect x="640" y="190" width="120" height="10" rx="5" fill="#CBD5E1"/>
  <rect x="180" y="218" width="380" height="8" rx="4" fill="#E2E8F0"/>
  <rect x="640" y="218" width="380" height="8" rx="4" fill="#E2E8F0"/>
  <rect x="180" y="320" width="90" height="10" rx="5" fill="#CBD5E1"/>
  <rect x="470" y="320" width="90" height="10" rx="5" fill="#CBD5E1"/>
  <rect x="760" y="320" width="90" height="10" rx="5" fill="#CBD5E1"/>
  <rect x="180" y="350" width="230" height="8" rx="4" fill="#E2E8F0"/>
  <rect x="470" y="350" width="230" height="8" rx="4" fill="#E2E8F0"/>
  <rect x="760" y="350" width="260" height="8" rx="4" fill="#E2E8F0"/>
  <rect x="180" y="452" width="120" height="10" rx="5" fill="#CBD5E1"/>
  <rect x="180" y="480" width="840" height="8" rx="4" fill="#E2E8F0"/>
  <rect x="180" y="500" width="650" height="8" rx="4" fill="#E2E8F0"/>
  <rect x="910" y="576" width="130" height="36" rx="8" fill="#65B520"/>
</svg>
