<svg xmlns="http://www.w3.org/2000/svg" width="111" height="23" fill="none"><g fill="#fff" clip-path="url(#a)"><path fill-rule="evenodd" d="M19.89 8.553a3.831 3.831 0 0 0 3.839-3.823 3.831 3.831 0 0 0-3.84-3.823 3.831 3.831 0 0 0-3.838 3.823 3.831 3.831 0 0 0 3.839 3.823ZM.582 8.89h9.36a9.794 9.794 0 0 1-5.37 6.701L0 17.755l1.842 3.859 4.571-2.164A14.053 14.053 0 0 0 14.47 6.754V4.617H.582V8.89Zm17.3 7.343a4.303 4.303 0 0 0-6.05.463l6.436 5.397 3.47-2.57-3.856-3.29Z" clip-rule="evenodd"/><path d="m39.98 8.953-3.55.202a1.639 1.639 0 0 0-.39-.756c-.2-.229-.465-.41-.792-.545-.322-.14-.707-.21-1.156-.21-.601 0-1.108.118-1.52.353-.413.23-.62.537-.62.923 0 .307.134.568.4.78.268.213.726.383 1.375.512l2.53.47c1.36.257 2.374.671 3.041 1.242.668.57 1.001 1.32 1.001 2.249 0 .844-.27 1.585-.81 2.223-.534.638-1.268 1.136-2.203 1.494-.928.352-2 .529-3.213.529-1.85 0-3.325-.356-4.424-1.066-1.092-.716-1.732-1.69-1.92-2.92l3.814-.185c.115.52.394.918.837 1.192.443.268 1.01.402 1.702.402.68 0 1.226-.12 1.639-.36.419-.247.63-.563.637-.949-.006-.324-.155-.59-.446-.797-.291-.212-.74-.375-1.347-.487l-2.421-.444c-1.366-.252-2.382-.688-3.05-1.31-.661-.62-.992-1.412-.992-2.374 0-.828.243-1.541.728-2.14.492-.598 1.18-1.06 2.067-1.384.892-.325 1.935-.487 3.13-.487 1.767 0 3.156.344 4.17 1.032 1.02.688 1.614 1.625 1.784 2.811ZM41.972 23V5.278h3.823v2.165h.173c.17-.347.416-.7.737-1.057.328-.364.753-.666 1.275-.907.528-.246 1.183-.369 1.966-.369 1.02 0 1.96.246 2.822.739.861.486 1.55 1.222 2.066 2.206.516.98.774 2.207.774 3.684 0 1.438-.252 2.652-.756 3.642-.497.984-1.177 1.731-2.039 2.24-.855.504-1.814.756-2.876.756-.753 0-1.393-.115-1.92-.345-.523-.229-.95-.517-1.284-.864a4.376 4.376 0 0 1-.765-1.066h-.118V23h-3.878Zm3.796-11.278c0 .767.115 1.435.346 2.006.23.57.564 1.015 1.001 1.334.437.313.968.47 1.593.47.631 0 1.165-.16 1.602-.478.437-.325.768-.772.992-1.343.23-.576.346-1.239.346-1.989 0-.744-.112-1.398-.337-1.963-.224-.565-.555-1.007-.992-1.326-.437-.319-.974-.478-1.611-.478-.631 0-1.165.154-1.602.461-.43.308-.762.744-.992 1.31-.23.564-.346 1.23-.346 1.996Zm17.973 6.697c-1.414 0-2.637-.277-3.668-.831a5.904 5.904 0 0 1-2.376-2.333c-.558-1.001-.838-2.162-.838-3.482 0-1.332.28-2.495.838-3.491a5.835 5.835 0 0 1 2.376-2.333c1.031-.56 2.254-.839 3.668-.839 1.414 0 2.634.28 3.66.84a5.821 5.821 0 0 1 2.384 2.332c.558.996.838 2.16.838 3.49 0 1.32-.28 2.482-.838 3.483a5.89 5.89 0 0 1-2.385 2.333c-1.025.554-2.245.83-3.659.83Zm.018-2.77c.643 0 1.18-.167 1.611-.503.431-.341.756-.806.974-1.393.225-.587.337-1.256.337-2.005 0-.75-.112-1.419-.337-2.006-.218-.587-.543-1.052-.974-1.393-.43-.341-.968-.512-1.61-.512-.65 0-1.196.17-1.64.512-.436.341-.767.806-.991 1.393-.219.587-.328 1.256-.328 2.005 0 .75.11 1.419.328 2.006.224.587.555 1.052.992 1.393.443.336.989.503 1.638.503Zm8.616 2.518V5.278h3.76v2.249h.145c.255-.8.683-1.404 1.283-1.813.601-.414 1.293-.62 2.076-.62a6.172 6.172 0 0 1 1.219.125v3.172a5.447 5.447 0 0 0-.755-.134 7.352 7.352 0 0 0-.883-.059c-.57 0-1.08.115-1.53.344a2.662 2.662 0 0 0-1.055.94 2.55 2.55 0 0 0-.383 1.393v7.292h-3.877ZM90.232 5.278v2.685h-8.42V5.278h8.42ZM83.724 2.19H87.6v12.016c0 .33.055.588.164.772.11.18.261.305.455.378.2.072.431.109.692.109.182 0 .364-.014.546-.042l.419-.076.61 2.66c-.194.056-.468.12-.82.193-.351.079-.78.126-1.283.143-.934.034-1.754-.081-2.458-.344-.698-.263-1.24-.671-1.629-1.225-.388-.554-.58-1.253-.573-2.098V2.19Zm8.265 15.977V5.278h3.877v12.889H91.99Zm1.948-14.55c-.577 0-1.071-.177-1.484-.53-.407-.357-.61-.785-.61-1.283 0-.492.203-.915.61-1.267C92.866.179 93.36 0 93.937 0c.576 0 1.068.179 1.474.537.413.352.62.775.62 1.267 0 .498-.207.926-.62 1.284-.406.352-.898.529-1.474.529Zm7.507 1.661 2.567 4.506 2.631-4.506h3.978l-4.051 6.444 4.16 6.445h-3.96l-2.758-4.456-2.712 4.456h-4.006l4.151-6.445-4.005-6.444h4.005Z"/></g><defs><clipPath id="a"><path fill="#fff" d="M0 0h110.729v23H0z"/></clipPath></defs></svg>