<svg width="1200" height="700" viewBox="0 0 1200 700" fill="none" xmlns="http://www.w3.org/2000/svg">
  <rect width="1200" height="700" fill="#F8FAFC"/>
  <rect x="80" y="60" width="1040" height="580" rx="18" fill="white" stroke="#E2E8F0"/>
  <rect x="120" y="100" width="300" height="20" rx="10" fill="#CBD5E1"/>
  <rect x="860" y="96" width="120" height="32" rx="8" fill="#0760FB"/>
  <rect x="990" y="96" width="90" height="32" rx="8" fill="#65B520"/>
  <rect x="120" y="154" width="960" height="450" rx="12" fill="#F8FAFC" stroke="#E2E8F0"/>
  <rect x="160" y="200" width="180" height="54" rx="8" fill="white" stroke="#E2E8F0"/>
  <rect x="160" y="304" width="180" height="54" rx="8" fill="white" stroke="#E2E8F0"/>
  <rect x="430" y="252" width="180" height="54" rx="8" fill="white" stroke="#E2E8F0"/>
  <rect x="430" y="408" width="180" height="54" rx="8" fill="white" stroke="#E2E8F0"/>
  <rect x="700" y="330" width="180" height="54" rx="8" fill="white" stroke="#E2E8F0"/>
  <rect x="940" y="330" width="100" height="54" rx="8" fill="#FEF9C3" stroke="#FDE047"/>
  <path d="M340 227H410V279H430" stroke="#94A3B8" stroke-width="2"/>
  <path d="M340 331H410V279" stroke="#94A3B8" stroke-width="2"/>
  <path d="M610 279H680V357H700" stroke="#94A3B8" stroke-width="2"/>
  <path d="M610 435H680V357" stroke="#94A3B8" stroke-width="2"/>
  <path d="M880 357H940" stroke="#94A3B8" stroke-width="2"/>
</svg>
