<svg width="1200" height="700" viewBox="0 0 1200 700" fill="none" xmlns="http://www.w3.org/2000/svg">
  <rect width="1200" height="700" fill="#F8FAFC"/>
  <rect x="90" y="60" width="1020" height="580" rx="18" fill="white" stroke="#E2E8F0"/>
  <rect x="130" y="100" width="260" height="20" rx="10" fill="#CBD5E1"/>
  <rect x="130" y="150" width="340" height="450" rx="12" fill="#F8FAFC" stroke="#E2E8F0"/>
  <rect x="490" y="150" width="580" height="210" rx="12" fill="#F8FAFC" stroke="#E2E8F0"/>
  <rect x="490" y="390" width="580" height="210" rx="12" fill="#F8FAFC" stroke="#E2E8F0"/>
  <rect x="150" y="178" width="130" height="10" rx="5" fill="#CBD5E1"/>
  <rect x="150" y="206" width="300" height="8" rx="4" fill="#E2E8F0"/>
  <rect x="150" y="234" width="300" height="8" rx="4" fill="#E2E8F0"/>
  <rect x="150" y="270" width="300" height="52" rx="8" fill="white" stroke="#E2E8F0"/>
  <rect x="150" y="334" width="300" height="52" rx="8" fill="white" stroke="#E2E8F0"/>
  <rect x="150" y="398" width="300" height="52" rx="8" fill="white" stroke="#E2E8F0"/>
  <rect x="510" y="178" width="180" height="10" rx="5" fill="#CBD5E1"/>
  <rect x="510" y="206" width="540" height="8" rx="4" fill="#E2E8F0"/>
  <rect x="510" y="234" width="420" height="8" rx="4" fill="#E2E8F0"/>
  <rect x="910" y="316" width="140" height="30" rx="8" fill="#65B520"/>
  <rect x="510" y="418" width="220" height="10" rx="5" fill="#CBD5E1"/>
  <rect x="510" y="446" width="540" height="8" rx="4" fill="#E2E8F0"/>
  <rect x="510" y="474" width="540" height="8" rx="4" fill="#E2E8F0"/>
  <rect x="510" y="510" width="540" height="54" rx="8" fill="white" stroke="#E2E8F0"/>
</svg>
