<svg width="1200" height="700" viewBox="0 0 1200 700" fill="none" xmlns="http://www.w3.org/2000/svg">
  <rect width="1200" height="700" fill="#F8FAFC"/>
  <rect x="90" y="58" width="1020" height="584" rx="18" fill="white" stroke="#E2E8F0"/>
  <rect x="130" y="98" width="260" height="20" rx="10" fill="#CBD5E1"/>
  <rect x="130" y="146" width="940" height="56" rx="10" fill="#F8FAFC" stroke="#E2E8F0"/>
  <rect x="150" y="166" width="280" height="16" rx="8" fill="#E2E8F0"/>
  <rect x="760" y="160" width="130" height="28" rx="8" fill="#F59E0B"/>
  <rect x="900" y="160" width="170" height="28" rx="8" fill="#65B520"/>
  <rect x="130" y="220" width="940" height="380" rx="10" fill="#F8FAFC" stroke="#E2E8F0"/>
  <rect x="150" y="238" width="60" height="10" rx="5" fill="#CBD5E1"/>
  <rect x="230" y="238" width="220" height="10" rx="5" fill="#CBD5E1"/>
  <rect x="470" y="238" width="180" height="10" rx="5" fill="#CBD5E1"/>
  <rect x="670" y="238" width="140" height="10" rx="5" fill="#CBD5E1"/>
  <rect x="830" y="238" width="220" height="10" rx="5" fill="#CBD5E1"/>
  <rect x="150" y="266" width="900" height="1" fill="#E2E8F0"/>
  <rect x="150" y="288" width="900" height="44" rx="8" fill="white" stroke="#E2E8F0"/>
  <rect x="150" y="344" width="900" height="44" rx="8" fill="white" stroke="#E2E8F0"/>
  <rect x="150" y="400" width="900" height="44" rx="8" fill="white" stroke="#E2E8F0"/>
  <rect x="150" y="456" width="900" height="44" rx="8" fill="white" stroke="#E2E8F0"/>
  <rect x="150" y="512" width="900" height="44" rx="8" fill="white" stroke="#E2E8F0"/>
</svg>
